# xmcd CD database file
#
# Track frame offsets:
#	150
#	15139
#	32197
#	46190
#	59228
#	73270
#	84113
#	99155
#	113006
#	126742
#	141204
#	150696
#	163253
#	176914
#	202221
#	214487
#	227823
#	239591
#	254803
#	269075
#
# Disc length: 3734 seconds
#
# Revision: 1
# Processed by: cddbd v1.5.1PL0 Copyright (c) Steve Scherf et al.
# Submitted via: CDex 1.51
#
DISCID=3a0e9414
DTITLE=Various Artist - The Greatest In Country Blues Vol. 3 (1927-196)
DYEAR=1992
DGENRE=Blues
TTITLE0=Smith Casey - Shorty George
TTITLE1=Bozie Sturdivant /Ain't No Grave Can Hold My Body Down
TTITLE2=Muddy Water - I Be's Troubled
TTITLE3=Big Bill Bronzy - How You Want It Done?
TTITLE4=Georgia Cotton Pickers - She's Coming Back Some Cold Rainy Day
TTITLE5=Bukka White - Sic 'Em Dogs On
TTITLE6=Lane Hardin - California Desert Blues
TTITLE7=Jesse James - Lonesome Day Blues
TTITLE8=Allen Shaw - Moanin' The Blues
TTITLE9=Leroy Carr - Midnight Hour Blues
TTITLE10=Pete Harris - Jack O'Diamonds
TTITLE11=Elmore James - Dust My Broom
TTITLE12=Kid Bailey - Rowdy Blues
TTITLE13=Smokey Hogg - Penitentiary Blues (Part 1 and 2)
TTITLE14=Dan Pickett - Baby How Long
TTITLE15=Sonny Boy Williamson - Mighty Long Time
TTITLE16=Lowell Fulson - River Blues (Part 2)
TTITLE17=Rube Lacy - Mississippi Jail House Groan
TTITLE18=William Harris - Bullfrog Blues
TTITLE19=Lightnin' Hopkins - Moanin' Blues
EXTD=YEAR: 1992
EXTT0=
EXTT1=
EXTT2=
EXTT3=
EXTT4=
EXTT5=
EXTT6=
EXTT7=
EXTT8=
EXTT9=
EXTT10=
EXTT11=
EXTT12=
EXTT13=
EXTT14=
EXTT15=
EXTT16=
EXTT17=
EXTT18=
EXTT19=
PLAYORDER=
